<svg width="46" height="46" viewBox="0 0 46 46" fill="none" xmlns="http://www.w3.org/2000/svg">
<path d="M42.4012 1.5H3.59889C1.92872 1.5 0.569946 2.85877 0.569946 4.52903V32.4212C0.569946 34.0914 1.92872 35.4501 3.59889 35.4501H13.6147V43.4047C13.6147 44.0086 14.106 44.4999 14.7099 44.4999H20.1087C20.4716 44.4999 20.7658 44.2058 20.7658 43.8428C20.7658 43.4798 20.4716 43.1856 20.1087 43.1856H14.929V35.4501H24.9063C24.9451 37.1578 25.9006 38.7023 27.4207 39.4992C27.6675 39.6286 27.827 39.9029 27.827 40.1982V43.1857H23.1753C22.8124 43.1857 22.5182 43.4799 22.5182 43.8429C22.5182 44.2059 22.8124 44.5 23.1753 44.5H34.8291C35.453 44.5 35.9606 43.9924 35.9606 43.3685V40.1982C35.9606 39.903 36.1201 39.6286 36.3669 39.4992C37.887 38.7023 38.8425 37.1579 38.8814 35.4501H42.4012C44.0714 35.4501 45.4302 34.0913 45.4302 32.4212V4.52903C45.4302 2.85877 44.0714 1.5 42.4012 1.5ZM25.3837 22.3736C25.2941 22.3279 25.1931 22.3016 25.0857 22.3016H24.894V16.7953C24.894 16.288 24.4813 15.8753 23.974 15.8753H20.9029C20.54 15.8753 20.2458 16.1695 20.2458 16.5325C20.2458 16.8955 20.54 17.1896 20.9029 17.1896H21.1231V22.3016H20.9314C20.5685 22.3016 20.2743 22.5958 20.2743 22.9588C20.2743 23.3218 20.5685 23.6159 20.9314 23.6159H24.9093C24.9064 23.663 24.9044 23.7104 24.9044 23.7581V25.6541C24.2908 25.7992 23.6516 25.8769 22.9943 25.8769C18.4131 25.8769 14.686 22.1499 14.686 17.5687C14.686 12.9875 18.4131 9.26055 22.9943 9.26055C24.735 9.26055 26.3512 9.80037 27.6875 10.719V14.8783C27.6875 15.4823 28.1788 15.9735 28.7827 15.9735H31.1474C31.2484 16.4901 31.3024 17.0231 31.3024 17.5687C31.3024 19.6573 30.5274 21.5679 29.2502 23.0291C28.9444 22.1778 28.1501 21.5503 27.2207 21.5192C26.608 21.498 26.0275 21.7219 25.5872 22.1478C25.5137 22.2189 25.4461 22.2946 25.3837 22.3736ZM23.5797 17.1896V22.3016H22.4374V17.1896H23.5797ZM37.569 35.3419C37.569 36.6021 36.8746 37.7491 35.7567 38.3351C35.0718 38.6941 34.6464 39.4079 34.6464 40.1981V43.1856H29.1413V40.1981C29.1413 39.4079 28.7158 38.6941 28.031 38.3351C26.9131 37.7491 26.2187 36.6022 26.2187 35.3419V23.758C26.2187 23.5048 26.319 23.2684 26.5011 23.0923C26.6831 22.9163 26.9232 22.8245 27.1769 22.8326C27.6696 22.8491 28.0706 23.2829 28.0706 23.7995V29.1405C28.0706 29.5035 28.3648 29.7976 28.7277 29.7976C29.0906 29.7976 29.3848 29.5035 29.3848 29.1405C29.3848 28.6299 29.8002 28.2145 30.3108 28.2145C30.8213 28.2145 31.2367 28.6299 31.2367 29.1405C31.2367 29.5035 31.5309 29.7976 31.8938 29.7976C32.2568 29.7976 32.551 29.5035 32.551 29.1405C32.551 28.6299 32.9664 28.2145 33.4769 28.2145C33.9875 28.2145 34.4029 28.6299 34.4029 29.1405C34.4029 29.5035 34.6971 29.7976 35.06 29.7976C35.4229 29.7976 35.7171 29.5035 35.7171 29.1405C35.7171 28.8872 35.8175 28.6509 35.9994 28.4747C36.1814 28.2987 36.4217 28.2071 36.6753 28.215C37.1681 28.2315 37.5689 28.6652 37.5689 29.1819L37.569 35.3419ZM44.1159 32.4211C44.1159 33.3666 43.3467 34.1357 42.4012 34.1357H38.8833V33.2595H42.1445C42.7484 33.2595 43.2397 32.7683 43.2397 32.1643V4.78566C43.2397 4.18171 42.7484 3.69044 42.1445 3.69044H13.1869C12.824 3.69044 12.5297 3.98457 12.5297 4.34757C12.5297 4.71057 12.824 5.0047 13.1869 5.0047H41.9254V31.9453H38.8833V29.182C38.8833 27.9644 37.9125 26.9413 36.7192 26.9016C36.1057 26.8815 35.5259 27.1043 35.0858 27.5301C35.0768 27.5388 35.068 27.5474 35.0592 27.5562C34.6536 27.1512 34.0939 26.9003 33.4768 26.9003C32.8594 26.9003 32.2994 27.1515 31.8938 27.5569C31.4882 27.1515 30.9281 26.9003 30.3107 26.9003C29.9807 26.9003 29.6671 26.972 29.3847 27.1007V24.7561C31.3663 22.9923 32.6167 20.4239 32.6167 17.5686C32.6167 17.0251 32.5702 16.4925 32.483 15.9735H39.4722C40.0761 15.9735 40.5674 15.4822 40.5674 14.8782V12.5735C40.5674 12.2105 40.2732 11.9163 39.9102 11.9163C39.5473 11.9163 39.2531 12.2105 39.2531 12.5735V14.6592H29.0019V7.56217H39.2531V9.50685C39.2531 9.86985 39.5473 10.164 39.9102 10.164C40.2732 10.164 40.5674 9.86985 40.5674 9.50685V7.34313C40.5674 6.73918 40.0761 6.24791 39.4722 6.24791H28.7828C28.1789 6.24791 27.6876 6.73918 27.6876 7.34313V9.17188C26.2983 8.39218 24.6976 7.9462 22.9944 7.9462C17.6885 7.9462 13.3718 12.2629 13.3718 17.5686C13.3718 22.8744 17.6885 27.1911 22.9944 27.1911C23.6483 27.1911 24.2869 27.1246 24.9045 26.9996V31.9454H4.07465V5.0047H10.1203C10.4832 5.0047 10.7774 4.71057 10.7774 4.34757C10.7774 3.98457 10.4832 3.69044 10.1203 3.69044H3.85561C3.25166 3.69044 2.76039 4.18171 2.76039 4.78566V32.1643C2.76039 32.7683 3.25166 33.2595 3.85561 33.2595H24.9044V34.1357H3.59889C2.6534 34.1357 1.88421 33.3666 1.88421 32.4211V4.52903C1.88421 3.58355 2.6534 2.81435 3.59889 2.81435H42.4012C43.3467 2.81435 44.1159 3.58355 44.1159 4.52903V32.4211Z" fill="#19A6A0"/>
<path d="M23.974 11.5213H22.0431C21.5358 11.5213 21.1231 11.934 21.1231 12.4413V14.3722C21.1231 14.8795 21.5358 15.2921 22.0431 15.2921H23.974C24.4813 15.2921 24.894 14.8795 24.894 14.3722V12.4413C24.894 11.934 24.4813 11.5213 23.974 11.5213ZM23.5797 13.9779H22.4374V12.8356H23.5797V13.9779Z" fill="#19A6A0"/>
<path d="M36.9312 8.43835H31.3237C30.9608 8.43835 30.6666 8.73248 30.6666 9.09548C30.6666 9.45848 30.9608 9.75261 31.3237 9.75261H36.9312C37.2942 9.75261 37.5884 9.45848 37.5884 9.09548C37.5884 8.73248 37.2942 8.43835 36.9312 8.43835Z" fill="#19A6A0"/>
<path d="M36.9312 10.4536H31.3237C30.9608 10.4536 30.6666 10.7477 30.6666 11.1107C30.6666 11.4737 30.9608 11.7678 31.3237 11.7678H36.9312C37.2942 11.7678 37.5884 11.4737 37.5884 11.1107C37.5884 10.7477 37.2942 10.4536 36.9312 10.4536Z" fill="#19A6A0"/>
<path d="M34.5656 12.4688H31.3237C30.9608 12.4688 30.6666 12.7629 30.6666 13.1259C30.6666 13.4889 30.9608 13.783 31.3237 13.783H34.5656C34.9285 13.783 35.2227 13.4889 35.2227 13.1259C35.2227 12.7629 34.9285 12.4688 34.5656 12.4688Z" fill="#19A6A0"/>
<path d="M10.1203 24.7352H6.44032C5.83638 24.7352 5.34511 25.2265 5.34511 25.8304V29.5104C5.34511 30.1143 5.83638 30.6056 6.44032 30.6056H10.1203C10.7242 30.6056 11.2155 30.1143 11.2155 29.5104V25.8304C11.2155 25.2265 10.7242 24.7352 10.1203 24.7352ZM9.90122 29.2913H6.65937V26.0495H9.90122V29.2913Z" fill="#19A6A0"/>
<path d="M10.1203 17.9887H6.44032C5.83638 17.9887 5.34511 18.4799 5.34511 19.0839V22.7638C5.34511 23.3678 5.83638 23.859 6.44032 23.859H10.1203C10.7242 23.859 11.2155 23.3678 11.2155 22.7638V19.0839C11.2155 18.4799 10.7242 17.9887 10.1203 17.9887ZM9.90122 22.5448H6.65937V19.3029H9.90122V22.5448Z" fill="#19A6A0"/>
<path d="M10.1203 11.2421H6.44032C5.83638 11.2421 5.34511 11.7334 5.34511 12.3373V16.0173C5.34511 16.6212 5.83638 17.1125 6.44032 17.1125H10.1203C10.7242 17.1125 11.2155 16.6212 11.2155 16.0173V12.3373C11.2155 11.7334 10.7242 11.2421 10.1203 11.2421ZM9.90122 15.7982H6.65937V12.5564H9.90122V15.7982Z" fill="#19A6A0"/>
</svg>
