<svg width="46" height="46" viewBox="0 0 46 46" fill="none" xmlns="http://www.w3.org/2000/svg">
<path d="M44.7969 36.9793H41.1652C41.2416 36.7613 41.2808 36.5321 41.2812 36.3013V23.6989C41.2812 23.5136 41.2072 23.3358 41.0753 23.2047C40.9434 23.0736 40.7646 23 40.5781 23C40.3916 23 40.2128 23.0736 40.0809 23.2047C39.9491 23.3358 39.875 23.5136 39.875 23.6989V36.3013C39.875 36.4811 39.8031 36.6535 39.6752 36.7807C39.5473 36.9078 39.3739 36.9793 39.193 36.9793H32.8438V34.8544C32.8293 32.1075 31.9139 29.4402 30.2363 27.2572C28.5588 25.0743 26.2107 23.495 23.5484 22.7588C24.5476 22.1722 25.3779 21.3396 25.9592 20.3412C26.5405 19.3427 26.8532 18.2123 26.8672 17.0588V8.32173C26.8324 7.40589 26.4508 6.53693 25.7989 5.88887C25.147 5.24081 24.2729 4.8615 23.3516 4.8269H17.0234C16.1021 4.8615 15.228 5.24081 14.5761 5.88887C13.9242 6.53693 13.5426 7.40589 13.5078 8.32173V17.0588C13.5217 18.2149 13.8358 19.3478 14.4197 20.3477C15.0036 21.3476 15.8376 22.1806 16.8406 22.7658C14.7987 23.343 12.9373 24.4251 11.4301 25.9112C10.2015 27.114 9.22451 28.5467 8.55537 30.1266C7.88623 31.7065 7.53817 33.4023 7.53125 35.1165V36.9793H6.80703C6.62615 36.9793 6.45267 36.9078 6.32476 36.7807C6.19686 36.6535 6.125 36.4811 6.125 36.3013V13.8925C6.125 13.7127 6.19686 13.5402 6.32476 13.4131C6.45267 13.2859 6.62615 13.2145 6.80703 13.2145H11.3984C11.5849 13.2145 11.7638 13.1408 11.8956 13.0098C12.0275 12.8787 12.1016 12.7009 12.1016 12.5155C12.1016 12.3301 12.0275 12.1524 11.8956 12.0213C11.7638 11.8902 11.5849 11.8165 11.3984 11.8165H6.80703C6.25489 11.822 5.72691 12.0425 5.33647 12.4306C4.94602 12.8187 4.72424 13.3436 4.71875 13.8925V36.3013C4.71923 36.5321 4.75844 36.7613 4.83477 36.9793H1.20312C1.01664 36.9793 0.837802 37.0529 0.705941 37.184C0.574079 37.3151 0.5 37.4929 0.5 37.6782V37.853C0.5 39.4257 1.77617 41.1731 3.48828 41.1731H42.5117C44.2238 41.1731 45.5 39.4257 45.5 37.853V37.6782C45.5 37.4929 45.4259 37.3151 45.2941 37.184C45.1622 37.0529 44.9834 36.9793 44.7969 36.9793ZM14.9141 8.32173C14.9474 7.77643 15.1803 7.26212 15.5689 6.87583C15.9575 6.48953 16.4749 6.25797 17.0234 6.22483H23.3516C23.9001 6.25797 24.4175 6.48953 24.8061 6.87583C25.1947 7.26212 25.4276 7.77643 25.4609 8.32173V11.8165H14.9141V8.32173ZM14.9141 17.0588V13.2145H25.4609V17.0588C25.4262 18.4382 24.8595 19.7516 23.8779 20.7274C22.8964 21.7031 21.5752 22.2665 20.1875 22.301C18.7998 22.2665 17.4786 21.7031 16.4971 20.7274C15.5155 19.7516 14.9488 18.4382 14.9141 17.0588ZM8.9375 35.1165C8.9445 33.5879 9.25527 32.0758 9.85195 30.667C10.4486 29.2582 11.3195 27.9804 12.4145 26.9072C13.409 25.9323 14.5757 25.148 15.8563 24.5936C15.5047 25.5337 15.2164 26.6171 15.0547 27.2427C14.3172 27.3577 13.6468 27.7351 13.1683 28.3047C12.6897 28.8742 12.4356 29.5972 12.4531 30.3391V34.8824C12.4531 35.0678 12.5272 35.2455 12.6591 35.3766C12.7909 35.5077 12.9698 35.5813 13.1562 35.5813H13.8594C14.0459 35.5813 14.2247 35.5077 14.3566 35.3766C14.4884 35.2455 14.5625 35.0678 14.5625 34.8824C14.5625 34.697 14.4884 34.5192 14.3566 34.3881C14.2247 34.2571 14.0459 34.1834 13.8594 34.1834V30.3391C13.851 30.1074 13.8908 29.8765 13.9761 29.6607C14.0615 29.4449 14.1907 29.249 14.3556 29.085C14.5206 28.9211 14.7177 28.7927 14.9347 28.7078C15.1518 28.6229 15.3841 28.5834 15.6172 28.5917C15.8503 28.5834 16.0826 28.6229 16.2996 28.7078C16.5167 28.7927 16.7138 28.9211 16.8787 29.085C17.0437 29.249 17.1728 29.4449 17.2582 29.6607C17.3436 29.8765 17.3834 30.1074 17.375 30.3391V34.1834C17.1885 34.1834 17.0097 34.2571 16.8778 34.3881C16.746 34.5192 16.6719 34.697 16.6719 34.8824C16.6719 35.0678 16.746 35.2455 16.8778 35.3766C17.0097 35.5077 17.1885 35.5813 17.375 35.5813H18.0781C18.2646 35.5813 18.4434 35.5077 18.5753 35.3766C18.7072 35.2455 18.7812 35.0678 18.7812 34.8824V30.3391C18.7973 29.652 18.5803 28.9795 18.1651 28.4298C17.75 27.8802 17.1608 27.4855 16.4926 27.3091C16.7703 26.2607 17.2309 24.7194 17.6281 24.0554C17.6281 24.0344 17.6457 24.0135 17.6562 23.996C18.5482 23.7831 19.4637 23.6833 20.3809 23.6989C21.5681 23.7202 22.7443 23.9302 23.8648 24.321C24.5855 25.6141 24.9195 27.4664 25.0426 28.3995C24.4415 28.5788 23.9261 28.9684 23.5915 29.4962C23.2569 30.0239 23.1258 30.6543 23.2224 31.2707C23.319 31.8871 23.6368 32.4479 24.117 32.8495C24.5972 33.2511 25.2075 33.4663 25.8349 33.4554C26.4624 33.4445 27.0647 33.2082 27.5305 32.7901C27.9963 32.3721 28.2941 31.8006 28.369 31.1812C28.4438 30.5618 28.2906 29.9364 27.9376 29.4206C27.5847 28.9047 27.0558 28.5333 26.4488 28.375C26.3134 27.2922 26.0781 26.2241 25.7457 25.1842C27.4596 26.1618 28.8847 27.5701 29.8782 29.268C30.8717 30.9659 31.3985 32.8937 31.4059 34.8579L31.4375 36.9793H8.9375V35.1165ZM25.8125 29.6856C26.0482 29.6856 26.2786 29.7551 26.4746 29.8852C26.6706 30.0154 26.8234 30.2005 26.9136 30.4169C27.0038 30.6334 27.0274 30.8716 26.9814 31.1015C26.9354 31.3313 26.8219 31.5424 26.6552 31.7081C26.4886 31.8738 26.2762 31.9866 26.045 32.0323C25.8138 32.078 25.5742 32.0546 25.3564 31.9649C25.1386 31.8752 24.9525 31.7234 24.8216 31.5285C24.6906 31.3337 24.6207 31.1046 24.6207 30.8703C24.6207 30.5561 24.7463 30.2548 24.9698 30.0326C25.1933 29.8104 25.4964 29.6856 25.8125 29.6856ZM42.5117 39.7751H3.48828C2.80273 39.7751 2.19805 39.0762 1.98711 38.3772H44.0129C43.802 39.0936 43.1973 39.7751 42.5117 39.7751Z" fill="#19A6A0"/>
<path d="M43.3906 7.62276H32.1406C31.5812 7.62276 31.0447 7.84368 30.6491 8.23693C30.2535 8.63017 30.0312 9.16353 30.0312 9.71966V14.7312C30.0312 17.4886 29.2227 19.3129 27.5703 20.3055C27.44 20.384 27.3389 20.5025 27.2821 20.6431C27.2254 20.7837 27.2162 20.9388 27.2559 21.0851C27.2955 21.2314 27.3819 21.3609 27.5021 21.4541C27.6222 21.5474 27.7695 21.5993 27.9219 21.6021H43.3906C43.9501 21.6021 44.4866 21.3811 44.8822 20.9879C45.2778 20.5946 45.5 20.0613 45.5 19.5052V9.71966C45.5 9.16353 45.2778 8.63017 44.8822 8.23693C44.4866 7.84368 43.9501 7.62276 43.3906 7.62276ZM44.0938 19.5052C44.0938 19.6905 44.0197 19.8683 43.8878 19.9994C43.7559 20.1305 43.5771 20.2041 43.3906 20.2041H29.8203C30.9066 18.9041 31.4375 17.0937 31.4375 14.7312V9.71966C31.4375 9.53428 31.5116 9.3565 31.6434 9.22541C31.7753 9.09433 31.9541 9.02069 32.1406 9.02069H43.3906C43.5771 9.02069 43.7559 9.09433 43.8878 9.22541C44.0197 9.3565 44.0938 9.53428 44.0938 9.71966V19.5052Z" fill="#19A6A0"/>
<path d="M40.5781 11.8165H34.9531C34.7666 11.8165 34.5878 11.8902 34.4559 12.0213C34.3241 12.1524 34.25 12.3301 34.25 12.5155C34.25 12.7009 34.3241 12.8787 34.4559 13.0098C34.5878 13.1408 34.7666 13.2145 34.9531 13.2145H40.5781C40.7646 13.2145 40.9434 13.1408 41.0753 13.0098C41.2072 12.8787 41.2812 12.7009 41.2812 12.5155C41.2812 12.3301 41.2072 12.1524 41.0753 12.0213C40.9434 11.8902 40.7646 11.8165 40.5781 11.8165Z" fill="#19A6A0"/>
<path d="M39.1719 16.0103H34.9531C34.7666 16.0103 34.5878 16.084 34.4559 16.2151C34.3241 16.3461 34.25 16.5239 34.25 16.7093C34.25 16.8947 34.3241 17.0725 34.4559 17.2035C34.5878 17.3346 34.7666 17.4083 34.9531 17.4083H39.1719C39.3584 17.4083 39.5372 17.3346 39.6691 17.2035C39.8009 17.0725 39.875 16.8947 39.875 16.7093C39.875 16.5239 39.8009 16.3461 39.6691 16.2151C39.5372 16.084 39.3584 16.0103 39.1719 16.0103Z" fill="#19A6A0"/>
<path d="M21.2422 8.32173H20.8906V7.97224C20.8906 7.78687 20.8165 7.60908 20.6847 7.478C20.5528 7.34692 20.374 7.27328 20.1875 7.27328C20.001 7.27328 19.8222 7.34692 19.6903 7.478C19.5585 7.60908 19.4844 7.78687 19.4844 7.97224V8.32173H19.1328C18.9463 8.32173 18.7675 8.39537 18.6356 8.52645C18.5038 8.65753 18.4297 8.83531 18.4297 9.02069C18.4297 9.20607 18.5038 9.38385 18.6356 9.51493C18.7675 9.64602 18.9463 9.71966 19.1328 9.71966H19.4844V10.0691C19.4844 10.2545 19.5585 10.4323 19.6903 10.5634C19.8222 10.6945 20.001 10.7681 20.1875 10.7681C20.374 10.7681 20.5528 10.6945 20.6847 10.5634C20.8165 10.4323 20.8906 10.2545 20.8906 10.0691V9.71966H21.2422C21.4287 9.71966 21.6075 9.64602 21.7394 9.51493C21.8712 9.38385 21.9453 9.20607 21.9453 9.02069C21.9453 8.83531 21.8712 8.65753 21.7394 8.52645C21.6075 8.39537 21.4287 8.32173 21.2422 8.32173Z" fill="#19A6A0"/>
</svg>
