<svg width="46" height="46" viewBox="0 0 46 46" fill="none" xmlns="http://www.w3.org/2000/svg">
<path d="M16.5639 11.568C18.2273 11.568 19.5806 10.2207 19.5806 8.56468C19.5806 6.90868 18.2273 5.5614 16.5639 5.5614C14.9005 5.5614 13.5472 6.90868 13.5472 8.56468C13.5472 10.2207 14.9005 11.568 16.5639 11.568ZM16.5639 6.82117C17.5296 6.82117 18.3152 7.60323 18.3152 8.56468C18.3152 9.52614 17.5296 10.3082 16.5639 10.3082C15.5983 10.3082 14.8126 9.52614 14.8126 8.56468C14.8126 7.60323 15.5983 6.82117 16.5639 6.82117Z" fill="#19A6A0"/>
<path d="M38.703 25.6996V10.9079C38.703 9.81974 37.8138 8.93447 36.7207 8.93447H31.6891C31.3397 8.93447 31.0564 9.2164 31.0564 9.56435C31.0564 9.9123 31.3397 10.1942 31.6891 10.1942H36.7207C37.116 10.1942 37.4376 10.5144 37.4376 10.9079V13.661H21.3803L22.6237 11.4229C22.6267 11.4175 22.6297 11.4119 22.6325 11.4065C22.836 11.0131 22.9984 10.6073 23.1206 10.1942H28.7365C29.0859 10.1942 29.3692 9.9123 29.3692 9.56435C29.3692 9.2164 29.0859 8.93447 28.7365 8.93447H23.3655C23.5042 7.49959 23.1774 6.0402 22.3914 4.75725C21.1421 2.71761 18.9636 1.5 16.5639 1.5C14.1643 1.5 11.9858 2.71761 10.7364 4.75717C9.95046 6.04011 9.62356 7.49951 9.76233 8.93438H3.97094C2.87789 8.93438 1.98865 9.81966 1.98865 10.9078V39.302C1.98865 40.3901 2.87789 41.2754 3.97094 41.2754H26.6003C28.4352 43.2567 31.0626 44.5 33.9766 44.5C39.5098 44.5 44.0114 40.0185 44.0114 34.5099C44.0113 30.7016 41.8595 27.3847 38.703 25.6996ZM37.4376 14.9208V25.1324C36.3582 24.7364 35.1924 24.5199 33.9766 24.5199C31.444 24.5199 29.1279 25.4591 27.3603 27.0056V21.2886C27.3603 21.0532 27.2286 20.8375 27.0186 20.7292L19.5833 16.8959L20.6805 14.9208H37.4376ZM24.173 32.3761L17.1966 35.9728V32.3223C17.1966 31.9743 16.9134 31.6924 16.5639 31.6924C16.2145 31.6924 15.9312 31.9743 15.9312 32.3223V35.9728L7.03295 31.3853V22.3241L15.9312 26.9117V29.3828C15.9312 29.7308 16.2145 30.0127 16.5639 30.0127C16.9134 30.0127 17.1966 29.7308 17.1966 29.3828V26.9117L26.0949 22.3241V28.3333C25.1708 29.4997 24.5023 30.8755 24.173 32.3761ZM15.6167 20.6257C15.8072 20.9687 16.1701 21.1818 16.5639 21.1818C16.9576 21.1818 17.3207 20.9688 17.5113 20.6257L18.9706 17.9988L25.3518 21.2887L16.564 25.8192L7.77608 21.2886L14.1572 17.9987L15.6167 20.6257ZM11.8167 5.41317C12.8345 3.75171 14.6091 2.75977 16.5639 2.75977C18.5187 2.75977 20.2933 3.75171 21.3111 5.41317C22.3273 7.07194 22.4021 9.09311 21.5116 10.8215L16.5639 19.7279L11.6161 10.8215C10.7257 9.09311 10.8005 7.07194 11.8167 5.41317ZM3.25413 10.9079C3.25413 10.5144 3.57571 10.1942 3.97102 10.1942H10.0074C10.1295 10.6073 10.2919 11.0131 10.4954 11.4065C10.4983 11.4119 10.5012 11.4175 10.5043 11.4229L11.7477 13.661H3.25413V10.9079ZM3.97094 40.0157C3.57563 40.0157 3.25405 39.6955 3.25405 39.302V14.9208H12.4473L13.5446 16.8959L6.10929 20.7292C5.89932 20.8375 5.76755 21.0532 5.76755 21.2886V31.7684C5.76755 32.0038 5.89932 32.2195 6.10929 32.3277L16.273 37.5677C16.3642 37.6147 16.4641 37.6382 16.5639 37.6382C16.6638 37.6382 16.7637 37.6147 16.8549 37.5677L23.9608 33.9042C23.9487 34.1047 23.9418 34.3065 23.9418 34.5099C23.9418 36.5432 24.5556 38.4361 25.6077 40.0157L3.97094 40.0157ZM33.9766 43.2402C29.1412 43.2402 25.2072 39.3238 25.2072 34.5099C25.2072 29.696 29.1411 25.7796 33.9766 25.7796C38.8121 25.7796 42.746 29.696 42.746 34.5099C42.746 39.3238 38.812 43.2402 33.9766 43.2402Z" fill="#19A6A0"/>
<path d="M40.7944 35.3177C40.4526 35.2448 40.1165 35.4618 40.0434 35.802C39.4359 38.6324 36.8844 40.6869 33.9765 40.6869C30.5553 40.6869 27.772 37.916 27.772 34.51C27.772 31.104 30.5554 28.333 33.9765 28.333C35.3878 28.333 36.7698 28.8199 37.868 29.7037C38.9506 30.5751 39.7163 31.7936 40.0239 33.1344C40.1017 33.4735 40.4411 33.6862 40.7816 33.6082C41.1222 33.5308 41.3353 33.1931 41.2575 32.854C40.887 31.239 39.9658 29.7724 38.6635 28.7242C37.341 27.6596 35.6764 27.0733 33.9764 27.0733C29.8575 27.0733 26.5065 30.4094 26.5065 34.5101C26.5065 38.6106 29.8575 41.9467 33.9764 41.9467C37.4774 41.9467 40.5492 39.4733 41.2807 36.0654C41.354 35.7251 41.1361 35.3903 40.7944 35.3177Z" fill="#19A6A0"/>
<path d="M33.9766 29.4188C33.6272 29.4188 33.3439 29.7008 33.3439 30.0487V34.5099C33.3439 34.8578 33.6272 35.1398 33.9766 35.1398H37.5163C37.8658 35.1398 38.149 34.8578 38.149 34.5099C38.149 34.1619 37.8658 33.88 37.5163 33.88H34.6093V30.0487C34.6093 29.7008 34.326 29.4188 33.9766 29.4188Z" fill="#19A6A0"/>
<path d="M27.0037 18.2556H34.8313C35.1807 18.2556 35.464 17.9737 35.464 17.6258C35.464 17.2778 35.1807 16.9959 34.8313 16.9959H27.0037C26.6543 16.9959 26.371 17.2778 26.371 17.6258C26.371 17.9737 26.6543 18.2556 27.0037 18.2556Z" fill="#19A6A0"/>
<path d="M34.8313 19.4143H29.9729C29.6234 19.4143 29.3402 19.6962 29.3402 20.0442C29.3402 20.3921 29.6234 20.6741 29.9729 20.6741H34.8313C35.1807 20.6741 35.464 20.3921 35.464 20.0442C35.464 19.6962 35.1807 19.4143 34.8313 19.4143Z" fill="#19A6A0"/>
<path d="M34.8313 21.8327H29.9729C29.6234 21.8327 29.3402 22.1146 29.3402 22.4626C29.3402 22.8105 29.6234 23.0925 29.9729 23.0925H34.8313C35.1807 23.0925 35.464 22.8105 35.464 22.4626C35.464 22.1146 35.1807 21.8327 34.8313 21.8327Z" fill="#19A6A0"/>
<path d="M34.8313 12.4335C35.1807 12.4335 35.464 12.1516 35.464 11.8036C35.464 11.4557 35.1807 11.1737 34.8313 11.1737H31.7723C31.4228 11.1737 31.1396 11.4557 31.1396 11.8036C31.1396 12.1516 31.4228 12.4335 31.7723 12.4335H34.8313Z" fill="#19A6A0"/>
</svg>
