<svg width="46" height="46" viewBox="0 0 46 46" fill="none" xmlns="http://www.w3.org/2000/svg">
<path d="M37.1094 43.1562H34.4219C34.0503 43.1562 33.75 43.4566 33.75 43.8281C33.75 44.1997 34.0503 44.5 34.4219 44.5H37.1094C37.4809 44.5 37.7812 44.1997 37.7812 43.8281C37.7812 43.4566 37.4809 43.1562 37.1094 43.1562Z" fill="#19A6A0"/>
<path d="M43.3531 38.3718L42.5657 37.5844C42.0866 37.1053 41.8125 36.4429 41.8125 35.7656V31.7344C41.8125 29.1073 40.1261 26.8727 37.7812 26.0402V25.0156C37.7812 23.9043 36.8769 23 35.7656 23C34.6543 23 33.75 23.9043 33.75 25.0156V26.0402C31.4052 26.8727 29.7188 29.1073 29.7188 31.7344V35.7656C29.7188 36.4429 29.4446 37.1053 28.9656 37.5844L28.1781 38.3718C27.4492 39.1008 27.0312 40.11 27.0312 41.1406C27.0312 41.5122 27.3316 41.8125 27.7031 41.8125H30.3906C30.7622 41.8125 31.0625 41.5122 31.0625 41.1406C31.0625 40.7691 30.7622 40.4688 30.3906 40.4688H28.4657C28.5833 40.0381 28.811 39.6397 29.1282 39.3219L29.9156 38.5344C30.6446 37.8054 31.0625 36.7963 31.0625 35.7656V31.7344C31.0625 29.1416 33.1729 27.0312 35.7656 27.0312C38.3584 27.0312 40.4688 29.1416 40.4688 31.7344V35.7656C40.4688 36.7963 40.8867 37.8054 41.6156 38.5344L42.4031 39.3219C42.7209 39.6397 42.9486 40.0381 43.0655 40.4688H33.0781C32.7066 40.4688 32.4062 40.7691 32.4062 41.1406C32.4062 41.5122 32.7066 41.8125 33.0781 41.8125H43.8281C44.1997 41.8125 44.5 41.5122 44.5 41.1406C44.5 40.11 44.0821 39.1008 43.3531 38.3718ZM35.0938 25.7271V25.0156C35.0938 24.6448 35.3947 24.3438 35.7656 24.3438C36.1365 24.3438 36.4375 24.6448 36.4375 25.0156V25.7271C36.2165 25.7023 35.9927 25.6875 35.7656 25.6875C35.5385 25.6875 35.3148 25.7023 35.0938 25.7271Z" fill="#19A6A0"/>
<path d="M25.0156 39.125H4.85938C3.74809 39.125 2.84375 38.2207 2.84375 37.1094V14.9375H31.7344C32.1059 14.9375 32.4062 14.6372 32.4062 14.2656C32.4062 13.8941 32.1059 13.5938 31.7344 13.5938H2.84375V8.89062C2.84375 7.77934 3.74809 6.875 4.85938 6.875H7.54688V8.21875C7.54688 9.70091 8.75222 10.9062 10.2344 10.9062H11.5781C11.9497 10.9062 12.25 10.6059 12.25 10.2344C12.25 9.86283 11.9497 9.5625 11.5781 9.5625H10.2344C9.4933 9.5625 8.89062 8.95983 8.89062 8.21875V4.1875C8.89062 3.44642 9.4933 2.84375 10.2344 2.84375C10.9755 2.84375 11.5781 3.44642 11.5781 4.1875V5.53125H10.9062C10.5347 5.53125 10.2344 5.83158 10.2344 6.20312C10.2344 6.57467 10.5347 6.875 10.9062 6.875H25.0156V8.21875C25.0156 9.70091 26.221 10.9062 27.7031 10.9062H29.0469C29.4184 10.9062 29.7188 10.6059 29.7188 10.2344C29.7188 9.86283 29.4184 9.5625 29.0469 9.5625H27.7031C26.962 9.5625 26.3594 8.95983 26.3594 8.21875V4.1875C26.3594 3.44642 26.962 2.84375 27.7031 2.84375C28.4442 2.84375 29.0469 3.44642 29.0469 4.1875V5.53125H28.375C28.0035 5.53125 27.7031 5.83158 27.7031 6.20312C27.7031 6.57467 28.0035 6.875 28.375 6.875H33.0781C34.1894 6.875 35.0938 7.77934 35.0938 8.89062V20.9844C35.0938 21.3559 35.3941 21.6562 35.7656 21.6562C36.1372 21.6562 36.4375 21.3559 36.4375 20.9844V8.89062C36.4375 7.03827 34.9305 5.53125 33.0781 5.53125H30.3906V4.1875C30.3906 2.70534 29.1853 1.5 27.7031 1.5C26.221 1.5 25.0156 2.70534 25.0156 4.1875V5.53125H12.9219V4.1875C12.9219 2.70534 11.7165 1.5 10.2344 1.5C8.75222 1.5 7.54688 2.70534 7.54688 4.1875V5.53125H4.85938C3.00702 5.53125 1.5 7.03827 1.5 8.89062V37.1094C1.5 38.9617 3.00702 40.4688 4.85938 40.4688H25.0156C25.3872 40.4688 25.6875 40.1684 25.6875 39.7969C25.6875 39.4253 25.3872 39.125 25.0156 39.125Z" fill="#19A6A0"/>
<path d="M25.6875 20.9844H12.25C11.8785 20.9844 11.5781 21.2847 11.5781 21.6562C11.5781 22.0278 11.8785 22.3281 12.25 22.3281H25.6875C26.059 22.3281 26.3594 22.0278 26.3594 21.6562C26.3594 21.2847 26.059 20.9844 25.6875 20.9844Z" fill="#19A6A0"/>
<path d="M25.6875 26.3594H12.25C11.8785 26.3594 11.5781 26.6597 11.5781 27.0312C11.5781 27.4028 11.8785 27.7031 12.25 27.7031H25.6875C26.059 27.7031 26.3594 27.4028 26.3594 27.0312C26.3594 26.6597 26.059 26.3594 25.6875 26.3594Z" fill="#19A6A0"/>
<path d="M8.21875 19.6406C7.10747 19.6406 6.20312 20.545 6.20312 21.6562C6.20312 22.7675 7.10747 23.6719 8.21875 23.6719C9.33003 23.6719 10.2344 22.7675 10.2344 21.6562C10.2344 20.545 9.33003 19.6406 8.21875 19.6406ZM8.21875 22.3281C7.84788 22.3281 7.54688 22.0271 7.54688 21.6562C7.54688 21.2854 7.84788 20.9844 8.21875 20.9844C8.58962 20.9844 8.89062 21.2854 8.89062 21.6562C8.89062 22.0271 8.58962 22.3281 8.21875 22.3281Z" fill="#19A6A0"/>
<path d="M8.21875 25.0156C7.10747 25.0156 6.20312 25.92 6.20312 27.0312C6.20312 28.1425 7.10747 29.0469 8.21875 29.0469C9.33003 29.0469 10.2344 28.1425 10.2344 27.0312C10.2344 25.92 9.33003 25.0156 8.21875 25.0156ZM8.21875 27.7031C7.84788 27.7031 7.54688 27.4021 7.54688 27.0312C7.54688 26.6604 7.84788 26.3594 8.21875 26.3594C8.58962 26.3594 8.89062 26.6604 8.89062 27.0312C8.89062 27.4021 8.58962 27.7031 8.21875 27.7031Z" fill="#19A6A0"/>
<path d="M25.6875 31.7344H12.25C11.8785 31.7344 11.5781 32.0347 11.5781 32.4062C11.5781 32.7778 11.8785 33.0781 12.25 33.0781H25.6875C26.059 33.0781 26.3594 32.7778 26.3594 32.4062C26.3594 32.0347 26.059 31.7344 25.6875 31.7344Z" fill="#19A6A0"/>
<path d="M8.21875 30.3906C7.10747 30.3906 6.20312 31.295 6.20312 32.4062C6.20312 33.5175 7.10747 34.4219 8.21875 34.4219C9.33003 34.4219 10.2344 33.5175 10.2344 32.4062C10.2344 31.295 9.33003 30.3906 8.21875 30.3906ZM8.21875 33.0781C7.84788 33.0781 7.54688 32.7771 7.54688 32.4062C7.54688 32.0354 7.84788 31.7344 8.21875 31.7344C8.58962 31.7344 8.89062 32.0354 8.89062 32.4062C8.89062 32.7771 8.58962 33.0781 8.21875 33.0781Z" fill="#19A6A0"/>
</svg>
