<svg width="46" height="46" viewBox="0 0 46 46" fill="none" xmlns="http://www.w3.org/2000/svg">
<path d="M28.281 8.1456C30.0776 8.1456 31.5391 6.65504 31.5391 4.82284C31.5391 2.99064 30.0776 1.5 28.281 1.5C26.4845 1.5 25.0229 2.99064 25.0229 4.82276C25.0228 6.65504 26.4845 8.1456 28.281 8.1456ZM28.281 2.75977C29.3965 2.75977 30.3039 3.68527 30.3039 4.82276C30.3039 5.96024 29.3964 6.88575 28.281 6.88575C27.1657 6.88575 26.2582 5.96024 26.2582 4.82276C26.2582 3.68527 27.1656 2.75977 28.281 2.75977Z" fill="#19A6A0"/>
<path d="M33.1369 9.7182L31.178 9.14744C30.5018 8.95033 29.7727 9.14299 29.2754 9.65026L29.2447 9.68158C28.7134 10.2234 27.8488 10.2234 27.3175 9.68158L27.2867 9.65026C26.7894 9.14299 26.0605 8.95033 25.3841 9.14744L23.4253 9.7182C22.034 10.1236 21.0622 11.4374 21.0622 12.9131V21.6536C21.0622 23.2782 22.2118 24.6333 23.7247 24.9197L24.3571 41.0447C23.9562 41.407 23.7027 41.9356 23.7027 42.5237V43.8701C23.7027 44.218 23.9792 44.5 24.3203 44.5H32.2418C32.5829 44.5 32.8594 44.218 32.8594 43.8701V42.5237C32.8594 41.9356 32.606 41.407 32.205 41.0447L32.8375 24.9197C34.3504 24.6333 35.5 23.2782 35.5 21.6536V12.9131C35.5 11.4374 34.5283 10.1236 33.1369 9.7182ZM22.2974 21.6536V16.8976H23.7026V23.6179C22.8884 23.351 22.2974 22.5714 22.2974 21.6536ZM24.9379 42.5237C24.9379 42.1285 25.2531 41.8071 25.6405 41.8071H27.6633V43.2402H24.9378L24.9379 42.5237ZM31.6242 43.2402H28.8987V41.8071H30.9215C31.309 41.8071 31.6241 42.1286 31.6241 42.5237L31.6242 43.2402ZM30.9215 40.5474H28.8987V27.0394C28.8987 26.6915 28.6221 26.4095 28.281 26.4095C27.9399 26.4095 27.6634 26.6915 27.6634 27.0394V40.5474H25.6406C25.6182 40.5474 25.5961 40.5483 25.5739 40.5491L24.9631 24.9764H31.599L30.9882 40.5491C30.966 40.5483 30.9439 40.5474 30.9215 40.5474ZM32.8594 23.6179V20.3071C32.8594 19.9593 32.5829 19.6772 32.2418 19.6772C31.9007 19.6772 31.6242 19.9593 31.6242 20.3071V23.7166H24.9379V13.5748C24.9379 13.2268 24.6614 12.9449 24.3203 12.9449C23.9792 12.9449 23.7027 13.2268 23.7027 13.5748V15.6378H22.2975V12.913C22.2975 11.9968 22.9009 11.181 23.7647 10.9293L25.7235 10.3586C25.7871 10.34 25.852 10.331 25.9163 10.331C26.1001 10.331 26.2798 10.4047 26.4133 10.5409L26.444 10.5722C27.457 11.6053 29.1052 11.6053 30.1182 10.5722L30.1489 10.5409C30.3292 10.357 30.5935 10.2871 30.8387 10.3586L32.7976 10.9293C33.6615 11.181 34.2647 11.9968 34.2647 12.913V15.6377H32.8594V13.5747C32.8594 13.2267 32.5829 12.9448 32.2418 12.9448C31.9007 12.9448 31.6242 13.2267 31.6242 13.5747V17.6141C31.6242 17.9619 31.9007 18.244 32.2418 18.244C32.5829 18.244 32.8594 17.9619 32.8594 17.6141V16.8975H34.2647V21.6535C34.2647 22.5714 33.6736 23.351 32.8594 23.6179Z" fill="#19A6A0"/>
<path d="M20.8471 8.81899C20.9359 8.81899 21.0261 8.79933 21.1117 8.75785C21.4199 8.60861 21.5509 8.23286 21.4045 7.91859C21.2967 7.68696 21.2419 7.43812 21.2419 7.17902C21.2419 6.22706 22.0013 5.45256 22.9347 5.45256C23.2758 5.45256 23.5523 5.17054 23.5523 4.82267C23.5523 4.47481 23.2758 4.19279 22.9347 4.19279C21.3201 4.19279 20.0066 5.53234 20.0066 7.17902C20.0066 7.62658 20.1016 8.05733 20.2888 8.4592C20.3945 8.68621 20.616 8.81899 20.8471 8.81899Z" fill="#19A6A0"/>
<path d="M20.3594 41.8071H21.7448C22.0859 41.8071 22.3624 41.5251 22.3624 41.1772C22.3624 40.8294 22.0859 40.5473 21.7448 40.5473H20.3594C20.3363 40.5473 20.3135 40.5483 20.2907 40.5491L19.6568 25.6788V14.9213C19.6568 14.5733 19.3802 14.2914 19.0391 14.2914C18.698 14.2914 18.4215 14.5733 18.4215 14.9213V16.9843H17.0162V14.2596C17.0162 13.3433 17.6196 12.5276 18.4834 12.2759L19.2741 12.0455C19.602 11.9499 19.792 11.6013 19.6983 11.2669C19.6045 10.9324 19.2626 10.7386 18.9347 10.8343L18.1441 11.0646C16.7527 11.47 15.7809 12.7839 15.7809 14.2596V23C15.7809 24.6253 16.9315 25.9809 18.4454 26.2665L19.0754 41.0451C18.6746 41.4074 18.4215 41.9358 18.4215 42.5236V43.8701C18.4215 44.218 18.698 44.5 19.0391 44.5H21.7448C22.0859 44.5 22.3624 44.218 22.3624 43.8701C22.3624 43.5222 22.0859 43.2402 21.7448 43.2402H19.6568V42.5237C19.6568 42.1285 19.9719 41.8071 20.3594 41.8071ZM17.0162 23V18.244H18.4215V24.9643C17.6072 24.6974 17.0162 23.9179 17.0162 23Z" fill="#19A6A0"/>
<path d="M16.7824 27.1584C15.2979 26.3166 14.3758 24.7232 14.3758 23V16.2677C14.3758 15.9198 14.0993 15.6378 13.7582 15.6378C13.4171 15.6378 13.1405 15.9198 13.1405 16.2677V23C13.1405 25.0606 14.1815 26.9738 15.8796 28.0758L16.3963 40.1946C15.9931 40.9048 15.781 41.7057 15.781 42.5237V43.8701C15.781 44.218 16.0575 44.5 16.3986 44.5C16.7397 44.5 17.0163 44.218 17.0163 43.8701V42.5237C17.0163 41.8783 17.1981 41.2466 17.5421 40.6971C17.6103 40.588 17.644 40.4601 17.6385 40.3308L17.0993 27.6815C17.09 27.4628 16.97 27.2648 16.7824 27.1584Z" fill="#19A6A0"/>
<path d="M14.3014 28.6638C12.6706 27.244 11.7353 25.1796 11.7353 23V19.6338C11.7353 19.2859 11.4587 19.0039 11.1176 19.0039C10.7765 19.0039 10.5 19.2859 10.5 19.6338V23C10.5 25.456 11.5153 27.7868 13.2947 29.438L13.7289 39.6202C13.3384 40.5416 13.1406 41.5175 13.1406 42.5236V43.8701C13.1406 44.218 13.4171 44.5 13.7582 44.5C14.0993 44.5 14.3758 44.218 14.3758 43.8701V42.5237C14.3758 41.648 14.5569 40.7996 14.914 40.0024C14.9546 39.9118 14.9735 39.8127 14.9692 39.7133L14.5174 29.1155C14.51 28.9409 14.4317 28.7774 14.3014 28.6638Z" fill="#19A6A0"/>
</svg>
