<svg width="45" height="45" viewBox="0 0 45 45" fill="none" xmlns="http://www.w3.org/2000/svg">
<path d="M27.4478 22.6332L29.4837 23.1725C29.6895 22.7861 30.0007 22.4745 30.3715 22.2628V22.262C32.2195 21.2079 34.3209 22.9986 33.7434 24.8531C33.5742 25.4445 33.1804 25.9165 32.677 26.2037L32.6778 26.2046C31.574 26.8345 30.1674 26.4624 29.5296 25.3722H29.5287C29.3144 25.006 29.2022 24.5819 29.22 24.1451L27.1841 23.6059C26.8397 24.4937 26.247 25.2311 25.5088 25.7611L26.5633 27.5653C29.1554 26.7648 30.7729 30.3504 28.4002 31.7111C27.304 32.3385 25.8923 31.9723 25.2511 30.8779L25.2503 30.8787C24.706 29.9464 24.8982 28.7798 25.6814 28.0667L24.6269 26.2625C21.6011 27.5947 18.1782 25.5982 17.8321 22.3905H15.7247C15.3284 24.1224 13.136 24.7725 11.8434 23.4942C10.3934 22.0604 11.4309 19.6087 13.4754 19.6087C14.0774 19.6087 14.7399 19.8766 15.1048 20.2764L15.1065 20.2756C15.4084 20.5746 15.6278 20.9559 15.7247 21.3826H17.8321C17.9324 20.4536 18.3023 19.5835 18.8849 18.8737L17.3941 17.4022C15.0963 18.836 12.5986 15.7753 14.5333 13.8645C16.468 11.9536 19.5678 14.4196 18.1161 16.69L19.6069 18.1623C19.8042 18.0053 20.0125 17.8642 20.2311 17.7399V17.739C20.8136 17.4064 21.465 17.1931 22.1462 17.1217V15.0412C20.2379 14.6145 19.8348 12.2686 21.0262 11.2095L21.0254 11.2086C22.4753 9.77572 24.9628 10.7971 24.9628 12.8188C24.9628 13.8939 24.2026 14.8085 23.1667 15.0412V17.1217C25.9323 17.4131 27.8798 19.9463 27.4478 22.6332ZM14.3776 26.0307C20.4599 26.0307 24.5793 32.1168 22.3376 37.6435C22.4005 37.6695 22.4549 37.6922 22.4992 37.7107C24.1388 37.0564 36.6646 31.5028 36.8781 14.1803C35.1134 13.9409 28.6979 12.7415 22.5 7.42058C16.2987 12.744 9.87977 13.9426 8.1194 14.1803C8.17468 18.7226 9.08293 22.9516 10.9845 26.7203C12.0254 26.2768 13.1726 26.0307 14.3776 26.0307ZM21.9039 38.5514C21.2814 39.6761 20.408 40.6462 19.3552 41.3895C20.9191 42.3059 22.0799 42.7939 22.5017 42.9593C24.433 42.2026 41.6243 34.8113 41.8428 11.2599C39.7363 10.9928 30.9532 9.48175 22.5 2.17107C14.0417 9.48511 5.25434 10.9953 3.1538 11.2607C3.21503 17.8633 4.61992 23.9721 7.59044 29.3257C8.26993 28.4573 9.11354 27.7248 10.0771 27.1722C8.04201 23.1414 7.0955 18.5949 7.0955 13.7318C7.0955 13.463 7.3098 13.2421 7.57939 13.2286C7.94252 13.1976 15.2238 12.5122 22.1615 6.3774C22.3571 6.20354 22.6522 6.20858 22.8427 6.37992C29.948 12.6617 37.4138 13.2286 37.4359 13.2303C37.7021 13.2513 37.9045 13.4722 37.9037 13.7318H37.9045C37.9045 33.3128 22.7211 38.7026 22.6777 38.7186C22.4422 38.8051 22.2253 38.6867 21.9039 38.5514ZM18.3831 41.9833C12.7202 44.9449 5.80626 40.894 5.80626 34.4963C5.80626 32.9542 6.22382 31.5078 6.95348 30.2622C3.6615 24.5407 2.13159 17.9431 2.13159 10.8097C2.13159 10.54 2.3459 10.32 2.61548 10.3066C3.03304 10.2713 12.8341 9.37592 22.1615 1.12789C22.3571 0.954867 22.6522 0.959066 22.8427 1.13041C32.3598 9.54474 42.3709 10.3049 42.3999 10.3074C42.6669 10.3292 42.8684 10.5501 42.8684 10.8097C42.8684 36.8002 22.7356 43.9471 22.6777 43.9681C22.5595 44.0118 22.4345 44.0092 22.3248 43.9689V43.9706C22.3197 43.9689 20.6997 43.3936 18.3831 41.9833ZM19.7174 29.2233C14.9729 24.5373 6.82676 27.8727 6.82676 34.4963C6.82676 41.1207 14.9729 44.4561 19.7174 39.7702C22.6658 36.8581 22.6658 32.1353 19.7174 29.2233ZM12.8401 28.4564H15.9152C16.1967 28.4564 16.4255 28.6815 16.4255 28.9604V32.4738H19.9836C20.2651 32.4738 20.4939 32.6997 20.4939 32.9777V36.0157C20.4939 36.2937 20.2651 36.5197 19.9836 36.5197H16.4255V40.0331C16.4255 40.3119 16.1967 40.537 15.9152 40.537H12.8401C12.5586 40.537 12.3298 40.3119 12.3298 40.0331V36.5197H8.77167C8.49019 36.5197 8.26142 36.2937 8.26142 36.0157V32.9777C8.26142 32.6997 8.49019 32.4738 8.77167 32.4738H12.3298V28.9604C12.3298 28.6815 12.5586 28.4564 12.8401 28.4564ZM15.405 29.4643H13.3503V32.9777C13.3503 33.2566 13.1216 33.4817 12.8401 33.4817H9.28193V35.5118H12.8401C13.1216 35.5118 13.3503 35.7369 13.3503 36.0157V39.5291H15.405V36.0157C15.405 35.7369 15.6337 35.5118 15.9152 35.5118H19.4734V33.4817H15.9152C15.6337 33.4817 15.405 33.2566 15.405 32.9777V29.4643ZM24.5742 25.1631C27.7896 23.3262 26.8116 18.2287 22.6174 18.1019C21.9481 18.1077 21.3035 18.2875 20.7413 18.6083L20.7405 18.6075C17.7215 20.3965 18.4546 24.6927 21.664 25.5419C22.6573 25.8048 23.7671 25.6528 24.5742 25.1631ZM23.5656 11.9209C23.0638 11.4245 22.2491 11.4245 21.7465 11.9209L21.7457 11.92C20.5491 13.1043 22.3682 14.9001 23.5656 13.7175C24.0682 13.2211 24.0673 12.4164 23.5656 11.9209ZM16.1644 14.2046C14.4703 14.2046 14.4703 16.7454 16.1644 16.7454C17.8584 16.7454 17.8584 14.2046 16.1644 14.2046ZM12.5663 20.9887C11.368 22.1713 13.1871 23.9679 14.3844 22.7844C14.887 22.2889 14.887 21.4842 14.3844 20.9887L14.3853 20.9878C13.8844 20.4931 13.068 20.4923 12.5663 20.9887ZM26.9137 30.9669C28.5499 31.3995 29.2166 28.9452 27.5804 28.5118C25.9442 28.0793 25.28 30.5352 26.9137 30.9669ZM32.1693 25.3344C33.6346 24.4995 32.3487 22.2948 30.8818 23.1322L30.8809 23.1313C30.2558 23.5017 30.0568 24.266 30.4089 24.8683L30.4081 24.8691C30.7831 25.4865 31.557 25.683 32.1676 25.3344V25.3361L32.1693 25.3344Z" fill="#19A6A0"/>
</svg>
