<svg width="42" height="43" viewBox="0 0 42 43" fill="none" xmlns="http://www.w3.org/2000/svg">
<path d="M12.8522 31.8761L6.82683 25.8508C6.5454 25.5692 6.17116 25.4143 5.77308 25.4143C5.68095 25.4143 5.59033 25.4234 5.50164 25.4397V20.9687C5.50164 18.9727 3.87789 17.341 1.88192 17.3316C1.38163 17.3312 0.906358 17.5232 0.550097 17.8777C0.195347 18.2308 0 18.7003 0 19.1998V29.7074C0 30.7607 0.410179 31.751 1.15495 32.4957L2.55186 33.8927C2.67481 34.0156 2.83606 34.0772 2.99723 34.0772C3.1584 34.0772 3.31965 34.0157 3.4426 33.8927C3.68859 33.6467 3.68859 33.2478 3.4426 33.0019L2.04569 31.6049C1.53884 31.0982 1.25976 30.4243 1.25976 29.7075V19.1998C1.25976 19.038 1.32334 18.8855 1.43873 18.7706C1.55497 18.655 1.70908 18.5913 1.87302 18.5913H1.87596C3.18057 18.5975 4.24188 19.664 4.24188 20.9687V26.457C3.93416 26.9603 3.7693 27.5395 3.7693 28.1444C3.7693 29.0107 4.10666 29.8253 4.71933 30.438L7.32838 33.047C7.45133 33.17 7.61259 33.2315 7.77375 33.2315C7.93492 33.2315 8.09617 33.1701 8.21912 33.047C8.46511 32.801 8.46511 32.4022 8.21912 32.1563L5.61006 29.5472C4.83657 28.7737 4.83657 27.5152 5.61006 26.7417C5.69993 26.6518 5.84614 26.6519 5.93601 26.7417L7.24885 28.0545L7.2491 28.0548L11.9613 32.767C12.4312 33.2369 12.6899 33.8617 12.6899 34.5262V41.7402H8.20266V38.8301C8.20266 38.1413 7.9345 37.4938 7.44747 37.0069L5.52104 35.0805C5.27505 34.8345 4.87621 34.8345 4.6303 35.0805C4.38431 35.3264 4.38431 35.7253 4.6303 35.9712L6.55673 37.8976C6.80575 38.1467 6.94298 38.4779 6.94298 38.8301V41.9351C6.94298 42.5223 7.42068 43 8.0079 43H12.8849C13.4721 43 13.9498 42.5223 13.9498 41.9351V34.5262C13.9499 33.5251 13.5601 32.584 12.8522 31.8761Z" fill="#19A6A0"/>
<path d="M41.0448 17.8778C40.6906 17.5253 40.2212 17.3316 39.722 17.3316H39.7129C37.717 17.3411 36.0932 18.9727 36.0932 20.9688V25.4398C36.0046 25.4236 35.9139 25.4144 35.8218 25.4144C35.4237 25.4144 35.0495 25.5694 34.7681 25.8508L28.7427 31.8762C28.0349 32.5839 27.6451 33.5251 27.645 34.5262V41.9351C27.645 42.5223 28.1227 43 28.7099 43H33.5869C34.1741 43 34.6518 42.5223 34.6518 41.9351V38.8301C34.6518 38.4779 34.789 38.1467 35.0381 37.8976L40.4399 32.4958C41.1847 31.751 41.5949 30.7607 41.5949 29.7075V19.1998C41.5949 18.7003 41.3995 18.2309 41.0448 17.8778ZM40.3351 29.7075C40.3351 30.4243 40.056 31.0981 39.5492 31.6049L34.1473 37.0068C33.6603 37.4938 33.3921 38.1413 33.3921 38.83V41.7402H28.9049V34.5262C28.9049 33.8616 29.1637 33.2368 29.6335 32.7669L35.6589 26.7416C35.7487 26.6518 35.895 26.6518 35.9848 26.7416C36.7583 27.5151 36.7583 28.7737 35.9848 29.5472L33.3758 32.1562C33.1298 32.4022 33.1298 32.801 33.3758 33.0469C33.4987 33.1699 33.66 33.2315 33.8211 33.2315C33.9823 33.2315 34.1435 33.17 34.2665 33.0469L36.8756 30.4379C37.4882 29.8253 37.8256 29.0107 37.8256 28.1443C37.8256 27.5394 37.6607 26.9602 37.353 26.457V20.9687C37.353 19.664 38.4143 18.5975 39.7188 18.5912H39.7219C39.8858 18.5912 40.0399 18.6548 40.1562 18.7705C40.2716 18.8854 40.3351 19.0379 40.3351 19.1997V29.7075Z" fill="#19A6A0"/>
<path d="M12.3693 18.9349C12.0523 19.0782 11.9114 19.4513 12.0547 19.7683C13.2017 22.3063 15.0753 24.3794 17.4727 25.7635L19.9793 27.2107C20.2277 27.3542 20.5105 27.4299 20.7974 27.4299C21.0842 27.4299 21.367 27.3542 21.6154 27.2107L24.122 25.7636C28.186 23.4173 30.7107 19.0447 30.7107 14.3519V11.4574C30.7107 10.8748 30.3973 10.3318 29.8926 10.0405L21.6154 5.26184C21.367 5.1184 21.0841 5.04265 20.7973 5.04265C20.5104 5.04265 20.2274 5.11848 19.9793 5.26184L11.7021 10.0405C11.1975 10.3318 10.884 10.8748 10.884 11.4574V14.3518C10.884 15.1735 10.9636 16.0047 11.1207 16.8222C11.1863 17.1638 11.5165 17.3873 11.8581 17.322C12.1997 17.2564 12.4235 16.9263 12.3579 16.5846C12.2158 15.8452 12.1439 15.094 12.1439 14.3518V11.4574C12.1439 11.3234 12.2159 11.1985 12.3321 11.1315L20.6093 6.35272C20.7234 6.2867 20.8713 6.28687 20.9855 6.35272L29.2627 11.1314C29.3788 11.1984 29.4509 11.3233 29.4509 11.4574V14.3518C29.4509 18.5959 27.1676 22.5506 23.4921 24.6725L20.9855 26.1197C20.8712 26.1855 20.7234 26.1857 20.6091 26.1197L18.1026 24.6725C15.9348 23.4209 14.2405 21.5457 13.2027 19.2493C13.0595 18.9325 12.6862 18.7916 12.3693 18.9349Z" fill="#19A6A0"/>
<path d="M35.1724 14.351V9.28889C35.1724 8.45425 34.7235 7.67656 34.0007 7.25933L27.3774 3.43535C27.076 3.26134 26.6909 3.36456 26.5169 3.66589C26.343 3.96714 26.4462 4.35238 26.7475 4.52631L33.3708 8.35028C33.7051 8.54328 33.9127 8.9029 33.9127 9.28889V14.351C33.9127 20.1839 30.7746 25.6192 25.7231 28.5356L21.3393 31.0666C21.0051 31.2596 20.5897 31.2596 20.2556 31.0666L15.8718 28.5356C10.8203 25.6191 7.68221 20.1839 7.68221 14.351V9.28889C7.68221 8.9029 7.88982 8.54328 8.22407 8.35028L20.2556 1.40394C20.5898 1.21095 21.0051 1.21103 21.3393 1.40394L24.2017 3.05659C24.5029 3.23043 24.8881 3.12722 25.0622 2.82605C25.2361 2.5248 25.1329 2.13956 24.8316 1.96563L21.9692 0.312988C21.2464 -0.104329 20.3485 -0.104329 19.6257 0.312988L7.59419 7.25933C6.87142 7.67656 6.42244 8.45434 6.42244 9.28889V14.351C6.42244 20.6326 9.80189 26.4858 15.2419 29.6267L19.6257 32.1576C19.9871 32.3663 20.3922 32.4706 20.7974 32.4706C21.2026 32.4706 21.6079 32.3663 21.9692 32.1576L26.353 29.6267C31.793 26.4858 35.1724 20.6326 35.1724 14.351Z" fill="#19A6A0"/>
<path d="M22.0339 10.6472H19.561C18.9821 10.6472 18.5112 11.1181 18.5112 11.697V13.7759H16.4323C15.8534 13.7759 15.3825 14.2468 15.3825 14.8257V17.2987C15.3825 17.8776 15.8534 18.3485 16.4323 18.3485H18.5112V20.4275C18.5112 21.0064 18.9821 21.4773 19.561 21.4773H22.0339C22.6128 21.4773 23.0837 21.0064 23.0837 20.4275V18.3485H25.1627C25.7416 18.3485 26.2125 17.8776 26.2125 17.2987V14.8257C26.2125 14.2468 25.7416 13.7759 25.1627 13.7759H23.0837V11.697C23.0837 11.1181 22.6128 10.6472 22.0339 10.6472ZM24.9527 15.0357V17.0888H22.8738C22.2949 17.0888 21.824 17.5597 21.824 18.1386V20.2175H19.771V18.1386C19.771 17.5597 19.3001 17.0888 18.7212 17.0888H16.6422V15.0357H18.7212C19.3001 15.0357 19.771 14.5648 19.771 13.9859V11.9069H21.824V13.9859C21.824 14.5648 22.2949 15.0357 22.8738 15.0357H24.9527Z" fill="#19A6A0"/>
</svg>
