<svg width="45" height="45" viewBox="0 0 45 45" fill="none" xmlns="http://www.w3.org/2000/svg">
<path d="M7.93177 26.5835L14.7644 30.6817C14.9754 30.8087 15.2428 30.81 15.4557 30.6817L22.2884 26.5835C24.9059 25.0134 26.5318 22.1439 26.5318 19.0944V7.7134C26.5318 7.35665 26.2529 7.06238 25.8969 7.04223C23.2115 6.89442 19.2161 6.28372 15.4329 4.21444C15.232 4.10493 14.9895 4.10493 14.7886 4.21444C11.0055 6.28439 7.00933 6.89442 4.32398 7.0429C3.9679 7.06238 3.68908 7.35665 3.68908 7.7134V19.0944C3.68908 22.1439 5.31494 25.0134 7.93177 26.5835ZM5.03277 8.34224C7.7497 8.1333 11.4952 7.46549 15.1104 5.56686C18.7256 7.46549 22.4711 8.1333 25.1881 8.34224V19.0944C25.1881 21.6743 23.8121 24.1024 21.5971 25.4313L15.1104 29.3226L8.62377 25.4313C6.40871 24.1024 5.03277 21.6743 5.03277 19.0944V8.34224Z" fill="#19A6A0"/>
<path d="M6.54778 28.8878L14.7644 33.8192C14.9754 33.9462 15.2428 33.9475 15.4557 33.8192L23.6724 28.8878C25.3097 27.9056 26.6742 26.5062 27.5604 25.0012C28.6454 23.2296 29.2191 21.1872 29.2191 19.0944C29.2191 18.9553 29.2191 5.02598 29.2191 5.02598C29.2191 4.6699 28.8879 4.3286 28.4868 4.35682C28.4156 4.36354 21.2511 4.95342 15.4833 1.10779C15.2408 0.945872 14.9243 0.983496 14.7382 1.10779C8.9691 4.95342 1.80591 4.36421 1.73402 4.35682C1.33226 4.3286 1.00171 4.66453 1.00171 5.02598V19.0944C1.00171 23.0838 3.12675 26.8367 6.54778 28.8878ZM2.3454 5.7341C6.59279 5.86309 11.3824 4.81435 15.1104 2.45886C18.823 4.80427 23.6066 5.86377 27.8754 5.7341C27.8754 6.16341 27.8754 19.9886 27.8754 19.0944C27.8754 20.9399 27.3702 22.7398 26.4095 24.3092C25.6402 25.6133 24.441 26.8602 22.9811 27.7356L15.1104 32.46L7.2391 27.7356C4.22051 25.9257 2.3454 22.6142 2.3454 19.0944V5.7341Z" fill="#19A6A0"/>
<path d="M9.73567 19.1415H13.0949V22.5007C13.0949 22.8715 13.3952 23.1725 13.7667 23.1725H16.4541C16.8256 23.1725 17.126 22.8715 17.126 22.5007V19.1415H20.4852C20.8567 19.1415 21.157 18.8405 21.157 18.4696V15.7822C21.157 15.4114 20.8567 15.1104 20.4852 15.1104H17.126V11.7512C17.126 11.3803 16.8256 11.0793 16.4541 11.0793H13.7667C13.3952 11.0793 13.0949 11.3803 13.0949 11.7512V15.1104H9.73567C9.36414 15.1104 9.06383 15.4114 9.06383 15.7822V18.4696C9.06383 18.8405 9.36414 19.1415 9.73567 19.1415ZM10.4075 16.4541H13.7667C14.1383 16.4541 14.4386 16.1531 14.4386 15.7822V12.423H15.7823V15.7822C15.7823 16.1531 16.0826 16.4541 16.4541 16.4541H19.8133V17.7978H16.4541C16.0826 17.7978 15.7823 18.0988 15.7823 18.4696V21.8288H14.4386V18.4696C14.4386 18.0988 14.1383 17.7978 13.7667 17.7978H10.4075V16.4541Z" fill="#19A6A0"/>
<path d="M31.0486 21.2504C32.0221 21.3962 32.9405 21.7616 33.7507 22.3018L33.6788 22.3737C33.05 23.0025 34.0006 23.9525 34.6288 23.3237L35.2892 22.6633C35.2913 22.6612 35.2939 22.6606 35.296 22.6579C35.2966 22.6565 35.2973 22.6552 35.298 22.6545L37.6642 20.2883C37.8073 20.1452 37.9155 19.8496 37.8181 19.5835C37.599 18.9822 37.7515 18.2983 38.2077 17.8421C38.8621 17.1877 39.9283 17.1864 40.5834 17.8421C41.2384 18.4972 41.2384 19.5627 40.5834 20.2171C40.1265 20.6733 39.4432 20.8258 38.8413 20.6074C38.5833 20.512 38.2749 20.6101 38.1117 20.7942L35.6661 23.2404C35.4471 23.4594 35.425 23.8598 35.5882 24.0963C37.1536 26.3678 37.1502 29.4173 35.5788 31.6841C35.5499 31.7607 35.4518 31.8937 35.4706 32.1195C35.4847 32.2928 35.5896 32.4715 35.6567 32.538L37.9753 34.8565C38.2124 35.0937 38.498 35.0393 38.6807 35.0117C39.282 34.7934 39.9659 34.9459 40.4228 35.4021C41.0778 36.0571 41.0778 37.1227 40.4228 37.7777C39.7684 38.4314 38.7022 38.4328 38.0472 37.7777C37.591 37.3215 37.4385 36.6376 37.6575 36.0363C37.7495 35.7837 37.6494 35.4793 37.5016 35.3309L34.4656 32.2948C33.8367 31.666 32.8874 32.6166 33.5156 33.2448L33.7373 33.4665C32.9922 33.9603 32.1598 34.3023 31.2884 34.4561C30.9794 34.5105 30.7308 34.831 30.7308 35.1172V38.3152C30.7308 38.4953 30.8591 38.7768 31.0694 38.8977C31.8528 39.3485 32.2317 40.2568 32.0127 41.1598C31.8447 41.8525 31.2629 42.4296 30.5655 42.5955C29.1983 42.9207 28.0454 41.8901 28.0454 40.6404C28.0454 39.9229 28.4311 39.2551 29.0518 38.8984C29.3528 38.7257 29.3696 38.3831 29.3871 38.3159V35.1179C29.3871 34.5804 28.773 34.4252 28.8409 34.4568C27.7424 34.2579 26.687 33.7628 25.788 33.0258C25.1034 32.4608 24.2475 33.5001 24.9361 34.0644C25.8579 34.8209 26.9248 35.349 28.0434 35.6392V37.9598C27.2083 38.5873 26.7017 39.581 26.7017 40.6404C26.7017 41.6751 27.1673 42.6358 27.9789 43.2774C29.8702 44.7723 32.7463 43.8391 33.3181 41.4769C33.6466 40.1251 33.1461 38.766 32.0738 37.9645V35.6439C33.0117 35.4054 33.8999 34.9936 34.696 34.4259L36.2748 36.0047C36.0787 36.9789 36.379 38.0095 37.0965 38.727C38.2776 39.9081 40.1964 39.9028 41.3721 38.727C42.5505 37.5486 42.5505 35.6305 41.3721 34.4514C40.6539 33.7339 39.622 33.4329 38.6485 33.6298L36.9883 31.9696C37.6111 30.9169 37.9712 29.7485 38.0707 28.5614H38.719C39.0375 29.7962 40.1205 30.5769 41.311 30.5769C42.7957 30.5769 43.9984 29.375 43.9984 27.8895C43.9984 27.172 43.7189 26.4968 43.2109 25.9889C42.1965 24.9737 40.4255 24.9737 39.411 25.9889C39.0663 26.3329 38.8372 26.7581 38.719 27.2177H38.0713C37.9739 26.0312 37.6152 24.8636 36.9951 23.8094L38.8184 21.986C39.0113 22.0243 39.2047 22.0485 39.3989 22.0485C40.1843 22.0485 40.9583 21.7408 41.5327 21.1671C42.7111 19.9887 42.7111 18.0705 41.5327 16.8915C40.3543 15.713 38.4355 15.713 37.2571 16.8915C36.5395 17.6097 36.2386 18.6403 36.4354 19.6151L34.7088 21.3417C33.6829 20.6074 32.5044 20.1089 31.2454 19.9208C30.3734 19.7858 30.1644 21.1187 31.0486 21.2504ZM41.3123 26.5465C42.5082 26.5465 43.1035 27.999 42.2623 28.8402C41.4541 29.6484 39.9727 29.115 39.9693 27.8942C39.9693 27.8929 39.97 27.8915 39.97 27.8895C39.97 27.8875 39.9693 27.8868 39.9693 27.8848C39.9713 27.1418 40.574 26.5465 41.3123 26.5465Z" fill="#19A6A0"/>
<path d="M24.5525 31.6572C24.4121 31.4597 24.2804 31.244 24.1507 30.9968C23.7389 30.2087 22.5477 30.8335 22.9609 31.6203C23.0227 31.7385 23.0865 31.848 23.1504 31.9562L19.247 35.8596C18.2768 35.6634 17.2442 35.9631 16.5186 36.6799C15.3436 37.8543 15.3429 39.7718 16.5206 40.9569C17.6957 42.1245 19.6131 42.136 20.7922 40.9576C21.5117 40.2441 21.8154 39.2141 21.6199 38.2359L24.2173 35.6386C24.8461 35.0097 23.8954 34.0604 23.2673 34.6886L20.416 37.5392C20.2756 37.73 20.1224 37.945 20.2373 38.2628C20.4556 38.8675 20.3024 39.5507 19.8436 40.0049C19.1905 40.6566 18.1236 40.6566 17.4699 40.0062C16.8156 39.3485 16.8149 38.2816 17.4652 37.6319C17.9275 37.1744 18.6141 37.0212 19.214 37.2409C19.4001 37.3094 19.7307 37.2752 19.9222 37.0837L24.4719 32.534C24.6936 32.3123 24.7272 31.9018 24.5525 31.6572Z" fill="#19A6A0"/>
<path d="M31.238 23.8618C30.8665 23.8618 30.5628 24.1662 30.5628 24.537C30.5628 24.9079 30.8665 25.2122 31.238 25.2122C31.6096 25.2122 31.9132 24.9079 31.9132 24.537C31.9132 24.1662 31.6096 23.8618 31.238 23.8618Z" fill="#19A6A0"/>
<path d="M26.8435 31.2595C26.8435 32.3707 27.7478 33.275 28.859 33.275C29.9703 33.275 30.8746 32.3707 30.8746 31.2595C30.8746 30.1483 29.9703 29.244 28.859 29.244C27.7478 29.244 26.8435 30.1476 26.8435 31.2595ZM29.5309 31.2595C29.5309 31.6297 29.2299 31.9313 28.859 31.9313C28.4882 31.9313 28.1872 31.6297 28.1872 31.2595C28.1872 30.8893 28.4882 30.5877 28.859 30.5877C29.2299 30.5877 29.5309 30.8886 29.5309 31.2595Z" fill="#19A6A0"/>
<path d="M32.9143 29.9158C33.8407 29.9158 34.5939 29.162 34.5939 28.2362C34.5939 27.3104 33.8407 26.5566 32.9143 26.5566C31.9878 26.5566 31.2347 27.3104 31.2347 28.2362C31.2347 29.162 31.9878 29.9158 32.9143 29.9158ZM32.9143 27.9003C33.099 27.9003 33.2502 28.0508 33.2502 28.2362C33.2502 28.4216 33.099 28.5721 32.9143 28.5721C32.7295 28.5721 32.5784 28.4216 32.5784 28.2362C32.5784 28.0508 32.7295 27.9003 32.9143 27.9003Z" fill="#19A6A0"/>
</svg>
